<svg width="212" height="60" viewBox="0 0 212 60" fill="none" xmlns="http://www.w3.org/2000/svg">
<rect y="4" width="10" height="10" rx="5" fill="#C6C6C6"/>
<rect y="24" width="10" height="10" rx="5" fill="#0F0E1C"/>
<rect y="44" width="10" height="10" rx="5" fill="#0F0E1C"/>
<rect x="17" y="4" width="52" height="10" fill="#0F0E1C"/>
<rect x="17" y="24" width="52" height="10" fill="#0F0E1C"/>
<rect x="17" y="44" width="52" height="10" fill="#0F0E1C"/>
<path d="M127.815 44.333C127.306 47.0371 126.867 49.7874 126.498 52.584C123.863 53.0462 121.448 53.3698 119.252 53.5547C117.056 53.7396 115.173 53.832 113.601 53.832C110.134 53.832 106.818 53.3467 103.651 52.376C100.508 51.4053 97.6654 49.8799 95.123 47.7998C92.6038 45.6966 90.778 43.1543 89.6455 40.1729C88.513 37.1914 87.9468 33.9326 87.9468 30.3965C87.9468 26.5599 88.6286 23.0122 89.9922 19.7534C91.3558 16.4946 93.3088 13.7443 95.8511 11.5024C98.4165 9.26058 101.444 7.59652 104.934 6.51025C108.424 5.40088 112.064 4.84619 115.854 4.84619C119.599 4.84619 123.689 5.27376 128.127 6.12891C128.196 8.18587 128.266 9.64193 128.335 10.4971L128.578 14.2065C125.966 13.5132 123.793 13.0394 122.06 12.7852C120.327 12.5309 118.674 12.4038 117.103 12.4038C114.63 12.4038 112.249 12.7852 109.961 13.5479C107.696 14.2874 105.685 15.4777 103.929 17.1187C102.195 18.7596 100.855 20.7472 99.9072 23.0815C98.9827 25.3927 98.5205 27.8079 98.5205 30.3271C98.5205 33.3317 99.0983 36.0243 100.254 38.4048C101.41 40.7853 103.258 42.7152 105.801 44.1943C108.366 45.6735 111.533 46.4131 115.3 46.4131C118.79 46.4131 122.961 45.7197 127.815 44.333Z" fill="black"/>
<path d="M140.165 53C140.489 49.4408 140.754 45.3962 140.962 40.8662L141.621 26.999C141.852 22.2842 142.002 18.228 142.072 14.8306C141.032 15.4777 140.234 15.9862 139.68 16.356C139.148 16.7026 137.808 17.6156 135.658 19.0947C135.774 17.6387 135.866 16.0093 135.936 14.2065C136.028 12.4038 136.074 11.0171 136.074 10.0464C136.883 9.58415 137.935 8.96012 139.229 8.17432C140.523 7.38851 141.332 6.8916 141.656 6.68359C141.979 6.45247 142.418 6.11735 142.973 5.67822C144.337 5.72445 145.989 5.74756 147.931 5.74756C149.826 5.74756 151.617 5.72445 153.304 5.67822L152.923 10.3931C152.83 11.4793 152.726 13.0394 152.611 15.0732L151.224 42.6343L151.12 46.7598C151.097 47.6149 151.085 48.4816 151.085 49.3599L151.12 53C149.549 52.9538 147.838 52.9307 145.989 52.9307C143.84 52.9307 141.898 52.9538 140.165 53Z" fill="#FF8A00"/>
</svg>
